<svg width="158" height="47" viewBox="0 0 158 47" fill="none" xmlns="http://www.w3.org/2000/svg">
<path d="M18.7242 23.0516L7.45223 37.9716C3.38823 34.4596 0.820312 29.2676 0.820312 23.4836C0.820312 13.3395 8.74023 4.99554 18.7242 4.33154V23.0516Z" fill="#FF6357"/>
<path d="M19.9317 25.436L30.7557 39.396C24.4074 43.689 15.9443 43.8568 9.34766 39.436L19.9317 25.436Z" fill="#93E277"/>
<path d="M22.373 24.6597H39.181C38.861 29.9397 36.397 34.6437 32.653 37.9237L22.373 24.6597Z" fill="#A0C5F2"/>
<path d="M39.1811 22.2598H21.125V4.31592C30.7891 4.86784 38.5731 12.6038 39.1811 22.2598Z" fill="#FDEA59"/>
<path d="M68.27 36H52.31V12.55H56.265V32.5H68.27V36ZM76.9451 36.35C72.0451 36.35 68.6851 32.78 68.6851 27.495C68.6851 22.175 72.0451 18.605 76.9451 18.605C81.9151 18.605 85.2751 22.175 85.2751 27.495C85.2751 32.78 81.9151 36.35 76.9451 36.35ZM76.9801 33.095C79.5351 33.095 81.2851 31.415 81.2851 27.495C81.2851 23.54 79.5351 21.86 76.9801 21.86C74.4601 21.86 72.7101 23.54 72.7101 27.495C72.7101 31.415 74.4601 33.095 76.9801 33.095ZM92.3106 36.35C89.5106 36.35 87.8306 34.775 87.8306 32.325C87.8306 29.91 89.5106 28.44 92.2756 27.355L97.9806 24.94C97.8406 23.225 97.0706 22.07 94.7256 22.07C92.4506 22.07 90.6656 23.4 89.6856 25.185L87.3406 22.385C88.6706 20.565 91.3306 18.605 95.1106 18.605C99.3456 18.605 101.726 21.02 101.726 25.22V31.625C101.726 32.395 102.006 32.64 102.636 32.64H103.721V36H101.306C99.4856 36 98.0506 35.16 98.0506 32.71V31.45C97.5256 33.69 95.8806 36.35 92.3106 36.35ZM91.6106 31.73C91.6106 32.71 92.2756 33.305 93.7106 33.305C96.3006 33.305 98.0506 31.765 98.0506 29.455V27.635L93.6756 29.595C92.2056 30.26 91.6106 30.855 91.6106 31.73ZM110.638 36H106.718V18.955H110.638V23.61C111.268 20.915 113.018 18.605 116.413 18.605C119.738 18.605 121.768 20.6 121.768 24.135V36H117.813V25.325C117.813 23.225 117.113 21.79 114.488 21.79C111.618 21.79 110.638 23.645 110.638 26.445V36ZM133.282 36.35C128.207 36.35 124.882 32.815 124.882 27.495C124.882 22.14 128.207 18.605 133.002 18.605C138.112 18.605 140.947 22 140.947 26.725C140.947 27.355 140.877 28.09 140.807 28.44H128.627C128.837 31.485 130.622 33.13 133.317 33.13C136.292 33.13 137.622 31.59 138.252 30.155L140.667 32.675C139.372 34.635 137.062 36.35 133.282 36.35ZM133.002 21.755C130.587 21.755 128.977 23.155 128.662 25.92H137.412C137.132 23.225 135.592 21.755 133.002 21.755ZM148.304 36H144.384V18.955H148.304V23.785C148.934 21.055 150.649 18.605 153.694 18.605C155.829 18.605 157.404 20.005 157.404 22.525C157.404 24.17 156.949 25.395 156.634 25.92H152.609C153.169 25.36 153.694 24.24 153.694 23.26C153.694 22.315 153.239 21.545 152.084 21.545C150.124 21.545 148.304 23.785 148.304 26.62V36Z" fill="#161616"/>
</svg>
